<svg width="254" height="138" viewBox="0 0 254 138" fill="none" xmlns="http://www.w3.org/2000/svg">
<path fill-rule="evenodd" clip-rule="evenodd" d="M250.604 88.7821V103.327L253.588 104.87V217.778L39.8997 220.214V147.977H46.9133V78.5204H49.461V68.9693H52.506V78.5204H66.6551C66.6551 78.5204 66.4419 123.475 66.6551 123.718C66.8682 123.962 73.9732 123.718 73.9732 123.718V160.157H79.7587V30.3993H87.1377V23.2435H90.1828V30.3993H113.294V36.7938H122.084V23.2435H125.129V36.7938H129.443V60.565H139.796V103.195H151.976V141.887H158.36V61.4684H166.399V49.1564H169.444V61.4684H191.561V17.0215H198.016V13.3675H223.767V0H226.812V13.3675H228.497V16.9911H234.8V94.9735L247.559 101.673V88.7821H250.604ZM23.8424 105.64H27.0396L33.4747 219.899H0L6.44525 105.64H8.96245V101.489H23.8424V105.64Z" fill="#1E1FCD"/>
</svg>
