<svg width="246" height="174" viewBox="0 0 246 174" fill="none" xmlns="http://www.w3.org/2000/svg">
<path fill-rule="evenodd" clip-rule="evenodd" d="M242.604 88.7821V103.327L245.588 104.87V217.778L31.8997 220.214V147.977H38.9133V78.5204H41.461V68.9693H44.506V78.5204H58.6551C58.6551 78.5204 58.4419 123.475 58.6551 123.718C58.8682 123.962 65.9732 123.718 65.9732 123.718V160.157H71.7587V30.3993H79.1377V23.2435H82.1828V30.3993H105.294V36.7938H114.084V23.2435H117.129V36.7938H121.443V60.565H131.796V103.195H143.976V141.887H150.36V61.4684H158.399V49.1564H161.444V61.4684H183.561V17.0215H190.016V13.3675H215.767V0H218.812V13.3675H220.497V16.9911H226.8V94.9735L239.559 101.673V88.7821H242.604ZM15.8424 105.64H19.0396L25.4747 219.899H-8L-1.55475 105.64H0.96245V101.489H15.8424V105.64Z" fill="#1E1FCD"/>
</svg>
