<svg width="365" height="201" viewBox="0 0 365 201" fill="none" xmlns="http://www.w3.org/2000/svg">
<path d="M190.743 8.89413C190.596 6.77721 181.118 12.9355 181.118 12.9355C181.118 12.9355 189.146 6.77721 188.458 5.23763C187.77 3.69805 178.724 10.4337 178.724 10.4337C178.724 10.4337 186.981 4.08294 185.706 2.72664C184.43 1.37035 175.613 8.50924 175.613 8.50924C175.613 8.50924 184.605 0.609719 181.173 0.417272C179.632 0.334794 167.53 8.55506 154.419 18.4249C158.089 23.007 161.759 27.4333 165.722 31.7129C169.925 27.3691 173.237 23.9142 173.686 23.3369C175.035 21.6048 188.431 22.7595 188.486 20.6426C188.541 18.5257 179.659 17.5634 179.659 17.5634C179.659 17.5634 190.89 11.0111 190.743 8.89413Z" fill="white"/>
<path fill-rule="evenodd" clip-rule="evenodd" d="M165.365 31.997C165.443 32.0808 165.553 32.1274 165.667 32.1253C165.77 32.1183 165.867 32.0762 165.943 32.0062C170.906 26.8742 173.42 24.2533 173.934 23.5935C174.447 22.935 177.993 22.742 180.853 22.5864L180.871 22.5854C185.779 22.3288 188.816 22.0905 188.816 20.6518C188.862 18.6723 183.715 17.6917 180.852 17.2977C183.981 15.4282 191.275 10.8461 191.137 8.86665C191.125 8.56063 190.945 8.28621 190.67 8.15184C189.835 7.73029 187.651 8.66504 185.495 9.81972C187.504 7.97772 189.229 6.01659 188.779 5.05435C188.675 4.83111 188.471 4.67101 188.229 4.62364C187.486 4.43119 185.871 5.20098 184.146 6.2182C185.284 5.0177 186.137 3.93632 186.201 3.18486C186.236 2.9143 186.149 2.64219 185.963 2.44256C185.174 1.59946 182.66 2.89161 180.146 4.56865C181.494 3.03823 182.522 1.51698 182.228 0.692206C182.051 0.239398 181.594 -0.0409844 181.109 0.00489321C178.944 0.00489321 163.805 10.7545 154.107 18.0858C154.018 18.1569 153.959 18.2581 153.941 18.3699C153.929 18.4818 153.962 18.594 154.033 18.6815C158.245 23.96 161.841 28.1847 165.365 31.997ZM165.676 31.0989C162.3 27.4699 158.914 23.4468 154.96 18.4982C169.53 7.55617 179.815 0.838833 181.072 0.902982C181.238 0.912146 181.449 0.948803 181.449 1.03128C181.742 1.84689 178.467 5.43925 175.265 8.26181C175.187 8.3377 175.143 8.44179 175.143 8.55048C175.143 8.65918 175.187 8.76327 175.265 8.83916C175.413 9.0121 175.67 9.0402 175.852 8.9033C180.329 5.29262 184.889 2.51588 185.403 3.08405V3.18486C185.293 4.44035 181.082 8.13351 178.448 10.168C178.263 10.3097 178.228 10.5743 178.37 10.759C178.512 10.9438 178.777 10.9787 178.962 10.8369C183.256 7.62032 187.44 5.17349 188.055 5.4759C188.367 6.13572 185.008 9.49898 180.871 12.6698C180.713 12.8118 180.685 13.0489 180.806 13.2233C180.927 13.3977 181.159 13.455 181.348 13.3571C185.651 10.562 189.761 8.55507 190.33 8.94913C190.403 10.0855 184.834 14.0444 179.393 17.1969C179.24 17.2903 179.163 17.4705 179.201 17.6459C179.235 17.8219 179.38 17.9553 179.558 17.9758C183.641 18.4249 188.009 19.5612 188.009 20.6334C187.991 21.3585 183.449 21.6085 180.935 21.7469L180.852 21.7515C176.622 21.9806 173.998 22.1639 173.301 23.0803C173.017 23.4194 171.494 25.0872 165.676 31.0989Z" fill="#231F20"/>
<path d="M119.058 49.8763C116.36 58.3898 132.655 97.7133 132.655 97.7133L152.84 72.7959C152.391 72.0261 142.188 54.3026 142.188 54.3026C142.188 54.3026 157.244 40.3822 165.64 31.7129C161.694 27.4332 157.969 22.9703 154.336 18.4249C138.224 30.5582 120.544 45.1842 119.058 49.8763Z" fill="#231F20"/>
<path fill-rule="evenodd" clip-rule="evenodd" d="M132.554 98.1165H132.655C132.792 98.1316 132.926 98.0764 133.013 97.9699L153.198 73.0617C153.289 72.9223 153.289 72.7429 153.198 72.6035C152.785 71.8887 143.996 56.6486 142.693 54.3851C144.647 52.5798 158.199 39.9882 165.933 31.997C166.074 31.8405 166.074 31.6037 165.933 31.4472C162.419 27.6532 158.832 23.4377 154.639 18.1775C154.5 18.0081 154.252 17.9797 154.079 18.1133C137.903 30.2467 120.168 44.9368 118.636 49.7664C115.92 58.3257 131.572 96.2654 132.242 97.8691C132.294 98.0018 132.413 98.0964 132.554 98.1165ZM119.425 49.9955C120.911 45.3767 139.059 30.4574 154.29 18.9839C158.29 23.9875 161.74 28.0381 165.117 31.7038C157.065 39.9496 143.124 52.9003 142.01 53.9352C141.969 53.9734 141.946 53.9953 141.94 54.0002C141.802 54.1305 141.769 54.3368 141.858 54.5042L152.363 72.7593L132.747 96.9252C130.682 91.8482 116.984 57.6934 119.425 49.9955Z" fill="#231F20"/>
<path d="M167.044 90.5286C168.695 101.947 176.301 111.606 184.559 120.431C189.504 125.673 195.569 131.007 202.808 130.668C206.267 130.494 209.515 129.009 212.534 127.323C220.093 123.131 226.854 117.644 232.508 111.111C230.214 111.12 228.284 109.394 228.04 107.116C231.049 108.522 234.592 108.125 237.215 106.089C242.83 101.636 240.105 97.7041 235.811 94.3867C229.097 89.2168 223.757 82.4794 220.259 74.7662C214.901 62.7978 204.258 46.8063 188.495 50.4536C173.338 53.9544 169.227 67.5357 167.135 81.007C166.629 84.1584 166.598 87.368 167.044 90.5286V90.5286Z" fill="white"/>
<path fill-rule="evenodd" clip-rule="evenodd" d="M184.256 120.715C189.11 125.875 195.019 131.098 202.129 131.098H202.827C206.497 130.924 209.901 129.284 212.736 127.708C220.35 123.49 227.151 117.95 232.82 111.35C232.932 111.227 232.957 111.049 232.884 110.901C232.814 110.748 232.658 110.654 232.49 110.662C230.7 110.648 229.124 109.482 228.59 107.776C231.584 108.865 234.927 108.342 237.444 106.392C239.665 104.614 240.775 102.726 240.775 100.893C240.757 98.6755 239.252 96.4945 236.041 94.011C229.376 88.8873 224.079 82.2019 220.617 74.5463C209.304 49.3173 195.56 48.3367 188.367 49.9955C181.623 51.4077 175.837 55.6972 172.53 61.7348C169.071 67.7281 167.612 75.1236 166.695 80.897C166.187 84.1075 166.166 87.3759 166.631 90.5927C168.346 102.451 176.503 112.468 184.256 120.715ZM188.559 50.8111C189.962 50.4889 191.396 50.326 192.835 50.3254C200.175 50.3254 210.763 54.6234 219.837 74.9312C223.357 82.7077 228.739 89.4995 235.508 94.7074C238.463 96.9893 239.912 99.0238 239.912 100.93C239.931 102.534 238.912 104.156 236.903 105.759C234.411 107.684 231.052 108.059 228.196 106.731C228.069 106.653 227.91 106.653 227.783 106.731C227.656 106.812 227.586 106.957 227.599 107.107C227.833 109.276 229.469 111.033 231.618 111.423C226.134 117.665 219.617 122.919 212.35 126.956C209.598 128.487 206.304 130.081 202.808 130.246C195.707 130.613 189.77 125.352 184.889 120.166C177.2 112.028 169.135 102.13 167.456 90.4919C167.005 87.36 167.027 84.1783 167.521 81.0528C169.649 67.3616 173.668 54.2568 188.559 50.8111Z" fill="#231F20"/>
<path d="M271.851 126.37C271.209 128.908 260.667 147.713 260.667 147.713L274.429 155.145C274.429 155.145 286.88 134.306 287.944 132.922C289.009 131.538 298.037 119.524 299.266 115.308C300.496 111.093 291.816 107.977 288.256 108.316C284.696 108.655 272.493 123.831 271.851 126.37Z" fill="white"/>
<path fill-rule="evenodd" clip-rule="evenodd" d="M274.218 155.512C274.276 155.548 274.343 155.567 274.411 155.567C274.532 155.561 274.644 155.5 274.714 155.402C274.742 155.362 275.349 154.349 276.294 152.775C279.68 147.132 287.392 134.278 288.21 133.224C288.215 133.218 288.241 133.183 288.288 133.121C289.229 131.878 298.347 119.829 299.597 115.464C299.913 114.27 299.594 112.997 298.753 112.092C296.486 109.352 290.844 107.711 288.137 107.941C284.412 108.225 272.071 123.575 271.392 126.269C270.888 128.257 263.924 141.023 260.254 147.502C260.208 147.604 260.208 147.721 260.254 147.823C260.282 147.933 260.355 148.026 260.456 148.08L274.218 155.512ZM274.264 154.586L261.245 147.539C262.768 144.817 271.649 128.862 272.255 126.47C272.815 124.308 284.907 109.022 288.265 108.729C290.724 108.518 296.092 110.076 298.156 112.578C298.827 113.268 299.088 114.258 298.844 115.189C297.743 119.029 289.697 129.916 287.596 132.665C286.596 133.967 275.943 151.773 274.264 154.586Z" fill="#231F20"/>
<path d="M267.897 134.498L255.602 149.473L229.086 131.722L217.791 152.726C217.791 152.726 255.345 180.887 260.667 178.193C265.988 175.499 282.109 142.269 282.109 142.269L267.897 134.498Z" fill="#231F20"/>
<path fill-rule="evenodd" clip-rule="evenodd" d="M217.543 153.047C221.214 155.796 252.07 178.761 259.813 178.761C260.163 178.782 260.512 178.719 260.832 178.578C266.227 175.856 281.834 143.837 282.494 142.471C282.585 142.278 282.514 142.047 282.329 141.94L268.071 134.168C267.901 134.073 267.686 134.116 267.566 134.269L255.501 148.932L229.306 131.382C229.212 131.319 229.095 131.299 228.985 131.327C228.875 131.356 228.781 131.429 228.728 131.529L217.433 152.533C217.342 152.709 217.388 152.924 217.543 153.047ZM260.511 177.836C256.336 179.934 228.911 160.534 218.305 152.607L229.223 132.299L255.382 149.812C255.552 149.933 255.788 149.896 255.914 149.729L267.998 135.011L281.613 142.444C279.898 145.981 265.364 175.37 260.511 177.836Z" fill="#231F20"/>
<path d="M279.155 97.8783L279.035 134.498H296.385V97.8783H279.155V97.8783Z" fill="#231F20"/>
<path fill-rule="evenodd" clip-rule="evenodd" d="M279.035 134.938H296.385C296.494 134.938 296.598 134.894 296.674 134.817C296.75 134.739 296.792 134.634 296.789 134.526V97.8691C296.789 97.6464 296.608 97.4659 296.385 97.4659H279.155C278.93 97.4658 278.747 97.6449 278.742 97.8691L278.632 134.526C278.629 134.634 278.671 134.739 278.746 134.817C278.822 134.894 278.927 134.938 279.035 134.938ZM295.963 134.132H279.448L279.54 98.2815H295.963V134.132Z" fill="#231F20"/>
<path d="M280.916 101.113L280.824 129.889H294.606V101.113H280.916V101.113Z" fill="white"/>
<path fill-rule="evenodd" clip-rule="evenodd" d="M280.843 130.301H294.605C294.718 130.306 294.828 130.265 294.909 130.187C294.991 130.109 295.037 130.001 295.037 129.889V101.113C295.037 100.885 294.852 100.701 294.624 100.701H280.935C280.705 100.701 280.517 100.884 280.512 101.113L280.43 129.88C280.425 129.993 280.469 130.102 280.549 130.182C280.627 130.26 280.733 130.303 280.843 130.301ZM294.183 129.44H281.246L281.338 101.535H294.183V129.44Z" fill="#231F20"/>
<path d="M271.099 128.276C271.099 128.276 268.511 115.941 272.392 114.007C276.274 112.074 289.614 109.81 287.55 112.834C285.485 115.858 278.255 117.728 278.255 117.728C278.255 117.728 279.742 122.044 278.109 125.105" fill="white"/>
<path d="M271.099 128.688C270.902 128.691 270.731 128.552 270.695 128.358C270.585 127.845 268.08 115.684 272.209 113.631C275.558 111.973 286.366 109.837 287.944 111.634C288.291 112.059 288.267 112.675 287.889 113.072C286.054 115.822 280.393 117.563 278.778 118.021C279.118 119.222 279.889 122.658 278.476 125.352C278.363 125.553 278.11 125.627 277.907 125.517C277.706 125.405 277.629 125.155 277.732 124.949C279.265 122.09 277.87 117.957 277.852 117.911C277.806 117.806 277.806 117.686 277.852 117.581C277.909 117.478 278.004 117.402 278.118 117.37C278.191 117.37 285.219 115.538 287.174 112.651C287.311 112.449 287.348 112.303 287.284 112.229C286.293 111.093 276.274 112.596 272.548 114.429C269.603 115.895 270.787 124.885 271.484 128.23C271.509 128.338 271.488 128.452 271.428 128.545C271.367 128.638 271.272 128.703 271.163 128.725L271.099 128.688Z" fill="#231F20"/>
<path d="M175.173 104.321L152.317 65.1346L126.627 93.6261L136.169 114.172C136.169 114.172 121.489 148.877 121.489 216.902C121.489 216.902 199.643 216.563 219.314 216.563L193.624 176.653C193.624 176.653 200.047 158.16 203.359 153.541L222.489 163.943L244.858 133.509L175.173 104.321Z" fill="#75ECCA"/>
<path d="M174.842 141.674C187.458 149.005 190.44 119.203 191 112.752C191.256 110.977 191.15 109.169 190.688 107.436C189.963 105.237 188.266 103.533 186.568 101.938C184.54 100.105 182.201 98.1807 179.439 98.0615C176.825 98.1024 174.385 99.3771 172.861 101.498C171.371 103.603 170.3 105.973 169.704 108.481C166.732 118.846 166.842 129.788 172.576 139.209C173.056 140.107 173.737 140.881 174.567 141.472L174.842 141.674Z" fill="#231F20"/>
<path fill-rule="evenodd" clip-rule="evenodd" d="M174.641 142.022C175.834 142.771 177.205 143.188 178.613 143.232C179.537 143.232 180.447 143.009 181.265 142.581C188.055 139.071 190.504 122.42 191.358 112.807C191.613 110.97 191.501 109.101 191.027 107.308C190.266 105.008 188.523 103.258 186.798 101.672C184.678 99.6744 182.283 97.8049 179.458 97.6858C176.709 97.7099 174.138 99.045 172.539 101.278C171.02 103.424 169.927 105.842 169.319 108.399C165.97 120.074 166.979 130.805 172.237 139.447C172.745 140.402 173.471 141.225 174.356 141.848L174.641 142.022ZM173.173 101.773C174.57 99.8208 176.783 98.6126 179.182 98.4922H179.402C181.972 98.593 184.219 100.371 186.275 102.259C187.926 103.78 189.587 105.439 190.284 107.556C190.723 109.239 190.823 110.993 190.578 112.715C189.165 128.798 185.623 139.41 180.907 141.848C179.136 142.764 177.21 142.59 175.026 141.316L174.76 141.161C173.992 140.6 173.364 139.869 172.925 139.025C167.787 130.613 166.805 120.074 170.099 108.619C170.678 106.162 171.721 103.839 173.173 101.773Z" fill="#231F20"/>
<path d="M212.488 85.7907C213.653 90.0154 211.745 95.3947 208.882 98.5197C206.974 100.582 202.79 101.132 201.946 97.7774C200.881 93.3155 201.666 88.6134 204.12 84.7368C205.955 81.7218 209.469 79.9989 211.726 83.8754C212.062 84.4783 212.318 85.1221 212.488 85.7907Z" fill="#231F20"/>
<path fill-rule="evenodd" clip-rule="evenodd" d="M204.038 100.463C204.38 100.544 204.731 100.584 205.084 100.582C206.646 100.574 208.138 99.9282 209.212 98.7947C211.965 95.7705 214.149 90.272 212.883 85.6899C212.687 84.9882 212.403 84.3139 212.038 83.683C210.882 81.6852 209.497 81.2361 208.534 81.2361C206.836 81.227 205.019 82.4733 203.735 84.5352C201.249 88.5084 200.462 93.3117 201.551 97.8691C201.816 99.1369 202.781 100.143 204.038 100.463ZM204.423 84.9476C205.542 83.1514 207.093 82.0426 208.488 82.0426L208.524 82.0334C209.616 82.0426 210.561 82.7299 211.341 84.0679C211.673 84.6435 211.929 85.2596 212.103 85.9007C213.277 90.1529 211.167 95.4406 208.579 98.2448C207.471 99.4288 205.836 99.9676 204.24 99.6744C203.271 99.4352 202.529 98.6554 202.34 97.6766C201.294 93.3265 202.045 88.7389 204.423 84.9476Z" fill="#231F20"/>
<path d="M192.807 104.696C190.972 111.725 189.137 127.735 177.439 119.359C176.241 118.419 175.195 117.3 174.338 116.042C168.576 108.371 170.218 103.533 173.2 95.1106C174.485 91.445 175.595 87.7793 176.87 84.1136C178.146 80.448 180.247 77.0022 181.99 73.529C181.926 73.6482 187.724 74.4454 193.523 71.8153C199.322 69.1852 204.12 66.4543 204.12 66.4543C205.689 68.8003 207.387 70.5782 208.222 73.3641C208.992 76.0667 209.213 78.8958 208.873 81.6851C208.139 88.5308 205.396 95.9354 202.285 102.048C199.175 108.16 192.807 104.696 192.807 104.696Z" fill="white"/>
<path fill-rule="evenodd" clip-rule="evenodd" d="M177.191 119.716C179.467 121.348 181.513 122.172 183.348 122.172C184 122.167 184.646 122.046 185.256 121.815C189.622 120.17 191.276 112.998 192.487 107.75L192.495 107.711C192.688 106.859 192.881 106.044 193.064 105.32C194.827 106.122 196.811 106.3 198.689 105.824C200.457 105.228 201.897 103.923 202.661 102.222C206.276 95.1381 208.625 87.8526 209.295 81.7218C209.635 78.8737 209.408 75.9864 208.625 73.2266C207.96 71.2864 206.953 69.4802 205.653 67.8931C205.258 67.3524 204.863 66.8025 204.469 66.216C204.345 66.0341 204.104 65.9748 203.909 66.0786C203.863 66.1061 199.056 68.8186 193.349 71.4304C189.858 73.0044 186.005 73.6 182.201 73.1533C182.103 73.1025 181.988 73.0933 181.883 73.1277C181.777 73.1622 181.69 73.2374 181.641 73.3366C181.155 74.308 180.641 75.2794 180.127 76.2508C178.739 78.7375 177.528 81.3191 176.503 83.9762C175.824 85.8732 175.191 87.8068 174.576 89.6855C174.544 89.786 174.511 89.8867 174.478 89.9876C173.94 91.6349 173.385 93.3335 172.806 94.9915L172.801 95.0036C169.849 103.354 168.065 108.403 173.998 116.307C174.882 117.6 175.959 118.75 177.191 119.716ZM181.333 75.7641C181.643 75.1857 181.953 74.6073 182.247 73.9964C186.174 74.4398 190.148 73.8194 193.752 72.2002C198.624 69.9733 202.845 67.6731 204.047 67.0133C204.368 67.4807 204.708 67.9481 205.038 68.3971C206.292 69.9087 207.268 71.6308 207.919 73.4832C208.674 76.1321 208.893 78.905 208.561 81.6393C207.91 87.6693 205.579 94.8541 202.01 101.855C201.351 103.349 200.097 104.499 198.551 105.026C196.695 105.466 194.742 105.229 193.046 104.357C192.932 104.301 192.798 104.298 192.681 104.349C192.564 104.4 192.476 104.501 192.44 104.623C192.264 105.28 192.092 106.024 191.909 106.818C191.855 107.054 191.8 107.294 191.743 107.537C191.709 107.679 191.675 107.821 191.641 107.966C190.444 112.988 188.871 119.584 185.027 121.036C183.027 121.788 180.568 121.109 177.687 119.038C176.525 118.119 175.51 117.028 174.677 115.803C169.007 108.252 170.631 103.643 173.595 95.2664C174.097 93.8411 174.547 92.4694 175.024 91.0121C175.139 90.661 175.255 90.305 175.375 89.9421C175.481 89.6199 175.587 89.2944 175.694 88.967C176.209 87.3946 176.738 85.7772 177.292 84.2603C178.305 81.6382 179.501 79.0904 180.871 76.6357C181.023 76.3424 181.178 76.0532 181.333 75.7641Z" fill="#231F20"/>
<path d="M190.881 111.496C190.881 111.496 185.201 110.204 182.623 105.485C180.045 100.765 181.605 97.1451 181.605 97.1451C181.605 97.1451 186.559 102.873 192.826 104.724L190.881 111.496Z" fill="#231F20"/>
<path fill-rule="evenodd" clip-rule="evenodd" d="M190.789 111.899H190.881C191.063 111.902 191.225 111.782 191.275 111.606L193.174 104.852C193.206 104.749 193.194 104.637 193.142 104.543C193.091 104.448 193.003 104.378 192.899 104.348C186.853 102.552 181.889 96.9435 181.889 96.8885C181.795 96.7887 181.658 96.7408 181.522 96.7602C181.384 96.7804 181.266 96.8705 181.21 96.9985C181.146 97.1543 179.613 100.875 182.256 105.695C184.898 110.516 190.55 111.844 190.789 111.899ZM182.962 105.274C181.656 103.067 181.227 100.45 181.76 97.9424C183.128 99.3812 187.238 103.358 192.312 104.98L190.596 110.983C189.321 110.607 185.064 109.104 182.962 105.274Z" fill="#231F20"/>
<path d="M194.358 93.1495C193.202 93.0602 192.082 92.7092 191.082 92.1231C190.887 92.0118 190.82 91.7636 190.931 91.5687C191.042 91.3738 191.291 91.3062 191.486 91.4175C192.193 91.8207 194.239 92.7371 195.156 92.1415C195.753 91.7566 195.101 87.9901 193.725 83.8937C193.654 83.6811 193.769 83.4514 193.982 83.3805C194.195 83.3097 194.425 83.4245 194.496 83.6371C195.321 86.0839 197.074 91.8849 195.587 92.8013C195.219 93.0314 194.792 93.1521 194.358 93.1495Z" fill="#231F20"/>
<path d="M192.679 98.1165C191.727 98.1312 190.784 97.9241 189.926 97.5117C187.633 96.3753 186.256 93.7086 185.779 89.5847C185.758 89.3631 185.916 89.1643 186.137 89.1356C186.244 89.1228 186.352 89.1533 186.437 89.2205C186.521 89.2876 186.575 89.3858 186.587 89.493C187.018 93.3237 188.256 95.7797 190.257 96.8244C193.312 98.3365 197.211 96.0454 197.248 96.0271C197.34 95.9701 197.452 95.9526 197.557 95.9785C197.662 96.0043 197.753 96.0714 197.808 96.1646C197.921 96.3573 197.86 96.6053 197.67 96.7236C196.141 97.5779 194.43 98.0555 192.679 98.1165V98.1165Z" fill="#231F20"/>
<path d="M193.11 79.8248C192.897 79.8253 192.721 79.661 192.706 79.4491C192.642 78.5327 192.376 77.9737 191.899 77.7354C190.981 77.2589 189.266 78.1203 188.697 78.496C188.509 78.62 188.257 78.5687 188.133 78.3815C188.008 78.1942 188.06 77.9419 188.247 77.8179C188.348 77.7537 190.697 76.2325 192.257 77.0114C193.085 77.512 193.569 78.4287 193.514 79.3941C193.521 79.5011 193.486 79.6067 193.415 79.6875C193.345 79.7684 193.245 79.8178 193.138 79.8248H193.11Z" fill="#231F20"/>
<path d="M203.285 84.3703C203.076 84.3711 202.901 84.212 202.882 84.0037C202.882 84.0037 202.698 81.9876 201.551 81.2544C200.56 80.6038 199.404 82.0884 199.395 82.1067C199.33 82.1922 199.233 82.248 199.126 82.2618C199.019 82.2756 198.911 82.2461 198.826 82.18C198.739 82.1161 198.681 82.02 198.666 81.9132C198.65 81.8064 198.678 81.6979 198.744 81.6118C199.303 80.8787 200.698 79.724 202.001 80.5763C203.478 81.5477 203.68 83.8571 203.689 83.9487C203.699 84.0557 203.666 84.1624 203.597 84.245C203.528 84.3276 203.429 84.3793 203.322 84.3886L203.285 84.3703Z" fill="#231F20"/>
<path d="M171.016 82.1525C170.872 83.6131 171.126 85.0854 171.75 86.4139C173.053 88.8241 176.265 89.8046 178.889 89.0257C185.742 87.0004 189.036 73.9781 183.852 68.8645C179.035 64.1174 173.567 71.6137 172.439 76.04C171.916 78.1203 171.09 80.0448 171.016 82.1525Z" fill="#231F20"/>
<path fill-rule="evenodd" clip-rule="evenodd" d="M171.393 86.6063C172.588 88.5762 174.748 89.7549 177.054 89.6946C177.704 89.6816 178.349 89.5799 178.971 89.3922C182.274 88.4758 185.054 84.9476 186.238 80.228C187.422 75.5085 186.605 71.0455 184.1 68.5804C182.89 67.2272 181.021 66.6676 179.265 67.1324C175.769 68.0947 172.806 72.8692 172.007 75.9484C171.861 76.5074 171.695 77.0664 171.53 77.6254C171.047 79.0868 170.739 80.6003 170.613 82.1342C170.454 83.6682 170.724 85.2162 171.393 86.6063ZM172.108 86.2306C171.512 84.9654 171.274 83.5615 171.42 82.1708H171.429C171.563 80.7009 171.871 79.252 172.347 77.8545L172.347 77.8545C172.512 77.2863 172.677 76.7182 172.824 76.15C173.558 73.3366 176.356 68.8186 179.513 67.9022C180.993 67.5174 182.565 68.0038 183.568 69.1577C185.862 71.4213 186.587 75.6276 185.486 80.0356C184.385 84.4436 181.816 87.7243 178.779 88.6408C176.265 89.4376 173.529 88.4491 172.108 86.2306Z" fill="#231F20"/>
<path d="M209.121 90.2078C208.949 90.2084 208.78 90.1608 208.634 90.0704C208.205 89.8061 208.07 89.2454 208.332 88.8149C208.433 88.6499 218.608 71.9345 220.351 61.5148C220.984 57.7392 219.305 53.9086 215.626 50.7103C210.598 46.3481 203.093 44.3962 197.78 46.0732C188.33 49.0607 183.302 70.8165 183.247 70.9997C183.133 71.489 182.646 71.7955 182.155 71.6871C181.661 71.5775 181.35 71.0898 181.458 70.5965C181.669 69.6801 186.779 47.6219 197.23 44.3228C203.203 42.4442 211.259 44.497 216.828 49.3265C221.012 52.9921 222.911 57.3909 222.168 61.8172C220.333 72.5943 210.323 89.0715 209.901 89.768C209.735 90.04 209.44 90.2065 209.121 90.2078Z" fill="#231F20"/>
<path d="M258.868 220C255.579 219.989 252.313 219.46 249.189 218.433C245.465 217.114 242.02 215.112 239.032 212.531C233.939 208.416 229.453 203.504 225.113 198.785C222.36 195.77 219.516 192.654 216.543 189.777C207.231 180.759 197.982 175.957 189.018 175.517C176.962 174.912 166.273 181.795 156.529 189.318C155.611 190.051 154.62 190.812 153.648 191.582C145.766 197.823 136.83 204.888 125.82 203.23C118.314 202.102 112.488 196.934 108.928 192.801C100.166 182.619 96.083 168.057 98.1107 153.935C100.258 138.723 108.745 128.001 123.342 122.062C135.426 117.15 146.831 110.277 157.868 103.633L157.96 103.588C164.796 99.4636 172.053 94.1851 174.007 86.2672C174.047 86.1035 174.171 85.9732 174.332 85.9254C174.494 85.8776 174.669 85.9195 174.791 86.0354C174.913 86.1512 174.964 86.3235 174.925 86.4872C172.888 94.7349 165.456 100.151 158.456 104.366L158.373 104.421C147.308 111.084 135.866 117.975 123.719 122.915C109.442 128.716 101.148 139.19 99.0466 154.073C97.0831 167.929 101.047 182.179 109.616 192.159C113.075 196.182 118.718 201.204 125.948 202.286C136.564 203.889 144.959 197.245 153.07 190.83L155.96 188.558C165.851 180.924 176.705 173.941 189.055 174.564C198.23 175.022 207.68 179.907 217.158 189.08C220.149 191.985 223.003 195.11 225.764 198.134C230.077 202.863 234.536 207.747 239.582 211.816C242.482 214.325 245.823 216.274 249.436 217.562C261.832 221.558 274.209 217.626 286.311 205.869C304.267 188.384 314.387 161.881 314.066 133.069C313.919 119.616 311.405 109.104 306.377 100.921C304.349 97.6125 301.79 93.9285 297.624 92.0865C295.495 91.1701 290.504 90.8218 288.577 93.5253C287.843 94.5608 287.77 95.7796 287.66 97.3284C287.66 97.9974 287.568 98.7488 287.467 99.5644C287.434 99.8175 287.202 99.996 286.949 99.9631C286.695 99.9302 286.517 99.6984 286.55 99.4453C286.66 98.6572 286.696 97.9516 286.742 97.2734C286.843 95.6422 286.935 94.2401 287.825 92.9937C290.064 89.8504 295.55 90.1803 297.991 91.2525C302.432 93.1953 305.047 97.0168 307.166 100.417C312.286 108.747 314.837 119.414 314.993 133.041C315.314 162.073 305.102 188.851 286.963 206.501C277.769 215.491 268.346 219.991 258.868 220Z" fill="#231F20"/>
<path d="M170.172 18.0216C170.039 18.0205 169.913 17.964 169.824 17.8659C169.648 17.6846 169.648 17.3965 169.824 17.2152C171.842 15.4648 173.842 14.6951 175.778 14.915C177.422 15.1393 178.914 15.9898 179.944 17.2885C180.089 17.4946 180.044 17.7782 179.843 17.93C179.744 18.002 179.621 18.0318 179.501 18.0129C179.38 17.9939 179.272 17.9279 179.201 17.8292C178.323 16.7355 177.065 16.0124 175.677 15.8039C174.007 15.6115 172.246 16.3171 170.429 17.8934C170.36 17.963 170.27 18.0081 170.172 18.0216Z" fill="#231F20"/>
<path d="M197.505 166.39C197.441 166.403 197.376 166.403 197.312 166.39C197.108 166.28 197.027 166.029 197.129 165.821L208.708 142.636C208.812 142.431 209.062 142.349 209.267 142.453C209.473 142.557 209.555 142.807 209.451 143.012L197.881 166.16C197.81 166.303 197.664 166.392 197.505 166.39V166.39Z" fill="#231F20"/>
<path d="M175.934 170.908C162.676 170.908 147.097 166.619 146.234 166.38C146.072 166.358 145.937 166.244 145.888 166.088C145.84 165.931 145.886 165.761 146.008 165.651C146.129 165.541 146.303 165.511 146.455 165.574C146.739 165.647 174.558 173.318 187.422 168.415C187.639 168.335 187.881 168.445 187.963 168.662C188.004 168.764 188.002 168.879 187.957 168.979C187.912 169.079 187.828 169.157 187.724 169.194C183.926 170.453 179.935 171.033 175.934 170.908V170.908Z" fill="#231F20"/>
<rect x="286.403" y="95.3123" width="2.00018" height="2.96919" fill="#231F20"/>
<path fill-rule="evenodd" clip-rule="evenodd" d="M286.403 98.6847H288.403C288.51 98.6847 288.613 98.6422 288.689 98.5666C288.764 98.491 288.807 98.3884 288.807 98.2815V95.3123C288.807 95.0896 288.626 94.9091 288.403 94.9091H286.403C286.294 94.9066 286.189 94.948 286.111 95.0239C286.034 95.0998 285.99 95.2037 285.99 95.3123V98.2815C285.995 98.5056 286.178 98.6847 286.403 98.6847ZM287.999 97.8691H286.807V95.7155H287.999V97.8691Z" fill="#231F20"/>
<path d="M179.026 86.6613L178.366 86.0198C182.549 81.8617 183.508 75.4554 180.724 70.2574L181.513 69.7901C184.5 75.346 183.49 82.201 179.026 86.6613V86.6613Z" fill="white"/>
<path d="M209.304 98.6847L208.451 98.3456C211.13 91.445 210.451 86.3497 210.451 86.3039L211.369 86.1756C211.387 86.368 212.075 91.5366 209.304 98.6847Z" fill="white"/>
<path d="M135.236 60.7799L141.883 53.9932L142.538 54.634L135.891 61.4208L135.236 60.7799Z" fill="white"/>
<path d="M255.407 149.9L255.81 149.077L262.872 152.531L262.469 153.354L255.407 149.9Z" fill="white"/>
<path d="M19.7965 86.0824C19.4112 85.9908 18.9983 85.9266 18.6221 85.7983C17.4198 85.5007 16.4641 84.5914 16.1081 83.4065C15.8532 82.3808 16.0539 81.2952 16.6586 80.4281C17.6704 78.8955 19.2704 77.8477 21.081 77.5322C22.2646 77.2665 22.7968 77.3306 24.6777 77.7888V55.7215L46.4044 51.3777V51.8726C46.4044 60.7068 46.4044 69.5319 46.4044 78.3662C46.4598 79.7692 45.868 81.1202 44.7988 82.0318C43.0444 83.7315 40.5091 84.355 38.1651 83.6631C36.9509 83.3936 35.9842 82.4774 35.6512 81.2804C35.3813 80.2595 35.5796 79.1715 36.1925 78.3112C37.2036 76.7696 38.8134 75.7198 40.6333 75.4153C41.8198 75.156 43.0562 75.2451 44.1932 75.6719V60.496L42.6518 60.7985C37.4831 61.8371 32.3236 62.8665 27.1733 63.8868C26.8889 63.9418 26.843 64.0517 26.843 64.3083C26.843 69.6785 26.843 75.0396 26.843 80.4006C26.8976 82.0713 26.0994 83.6554 24.7236 84.607C23.7108 85.372 22.515 85.8586 21.2554 86.0183C21.1898 86.0355 21.1255 86.0569 21.0627 86.0824H19.7965Z" fill="#CD7DF3"/>
<path d="M363.605 149.33C363.605 149.156 363.605 148.981 363.605 148.807C363.549 148.327 363.369 147.869 363.082 147.479C362.617 146.801 362.014 146.23 361.312 145.802C360.61 145.352 359.828 145.041 359.009 144.885C358.487 144.784 357.952 144.784 357.43 144.885H357.293C357.288 144.824 357.288 144.763 357.293 144.702C357.385 144.344 357.476 143.996 357.577 143.657L359.412 137.242C360.082 134.914 360.761 132.587 361.431 130.259V130.122L360.789 130.067C359.031 129.973 357.276 130.287 355.66 130.983C354.149 131.607 352.888 132.712 352.072 134.126C351.843 134.53 351.668 134.96 351.476 135.391C351.347 135.666 351.246 135.959 351.127 136.243C351.122 136.283 351.122 136.323 351.127 136.362L351.356 136.225C352.085 135.747 352.849 135.324 353.641 134.96C354.864 134.411 356.203 134.172 357.541 134.264C358.116 134.32 358.683 134.446 359.229 134.64V134.64C359.225 134.685 359.225 134.731 359.229 134.777C358.116 138.638 357.011 142.496 355.917 146.351C355.902 146.421 355.902 146.493 355.917 146.562C355.995 147.244 356.283 147.884 356.742 148.395C357.323 149.103 358.057 149.67 358.889 150.054L359.605 150.365L360.266 150.558H360.449C360.994 150.668 361.556 150.668 362.101 150.558C362.56 150.493 362.98 150.265 363.284 149.916C363.383 149.777 363.475 149.634 363.559 149.486L363.605 149.33Z" fill="#CD7DF3"/>
<path d="M37.1356 158.346C37.1356 158.126 37.1356 157.897 37.2365 157.677C37.3972 157.072 37.7135 156.519 38.1541 156.073C38.8945 155.301 39.7883 154.693 40.7781 154.286C41.7689 153.851 42.8344 153.612 43.916 153.58C44.6061 153.559 45.294 153.668 45.9437 153.901L46.1181 153.965C46.1226 153.886 46.1226 153.806 46.1181 153.727C46.1181 153.26 46.0263 152.811 45.9713 152.334C45.6226 149.444 45.2709 146.564 44.9161 143.692C44.5308 140.558 44.1362 137.433 43.7509 134.308V134.125C44.0353 134.125 44.3198 134.125 44.5858 134.189C46.8669 134.416 49.0647 135.166 51.0084 136.379C52.8151 137.49 54.205 139.165 54.9629 141.145C55.1631 141.715 55.3315 142.297 55.4675 142.886C55.5776 143.271 55.651 143.665 55.7428 144.059C55.7569 144.11 55.7569 144.164 55.7428 144.215L55.4767 143.986C54.6369 143.224 53.7414 142.525 52.7976 141.896C51.3449 140.942 49.6765 140.365 47.9439 140.219C47.1922 140.17 46.4373 140.213 45.696 140.347V140.347C45.7005 140.405 45.7005 140.464 45.696 140.522C46.3077 145.702 46.9347 150.895 47.5769 156.101C47.5952 156.188 47.5952 156.279 47.5769 156.366C47.3425 157.241 46.8386 158.02 46.1364 158.593C45.2473 159.387 44.1857 159.965 43.0352 160.279C42.7141 160.38 42.3838 160.454 42.0627 160.536L41.1452 160.646H40.9984C40.2763 160.692 39.5524 160.592 38.8697 160.353C38.2973 160.182 37.8076 159.807 37.4935 159.299C37.3869 159.101 37.2949 158.896 37.2182 158.685L37.1356 158.346Z" fill="#CD7DF3"/>
<path d="M256.831 77.0664C256.951 76.8281 257.052 76.5807 257.189 76.3608C257.617 75.7381 258.199 75.2362 258.878 74.9037C260.019 74.324 261.269 73.987 262.548 73.9139C263.836 73.8121 265.131 73.9583 266.364 74.3446C267.155 74.5882 267.891 74.9835 268.53 75.5085L268.704 75.646C268.749 75.5608 268.785 75.4718 268.814 75.3802C268.952 74.8395 269.08 74.2988 269.2 73.749L271.402 63.5767C272.191 59.9111 272.977 56.2271 273.76 52.5247L273.805 52.3048C274.127 52.4423 274.429 52.5614 274.723 52.6989C277.2 53.851 279.379 55.5567 281.091 57.6842C282.702 59.6458 283.618 62.0851 283.696 64.6215C283.696 65.3407 283.659 66.0595 283.586 66.775C283.586 67.2607 283.485 67.6915 283.43 68.2138C283.424 68.2722 283.406 68.3286 283.375 68.3788L283.155 68.0214C282.509 66.8338 281.772 65.6972 280.953 64.6215C279.689 62.9694 278.029 61.6615 276.127 60.8183C275.299 60.4677 274.429 60.2244 273.539 60.0944C273.539 60.0944 273.539 60.0944 273.475 60.0944C273.465 60.1657 273.45 60.2361 273.429 60.3051L269.466 78.5785C269.444 78.6856 269.404 78.788 269.346 78.8809C268.738 79.7754 267.866 80.4579 266.851 80.8329C265.532 81.375 264.108 81.61 262.685 81.5202C262.281 81.5202 261.887 81.4652 261.483 81.4285L260.428 81.2086L260.254 81.1353C259.422 80.9047 258.645 80.5089 257.969 79.9714C257.395 79.5469 256.989 78.9335 256.822 78.2394C256.787 77.975 256.765 77.7088 256.758 77.4421L256.831 77.0664Z" fill="#CD7DF3"/>
<path d="M4.09214 31.8C-0.633057 31.8 -0.642233 39.1314 4.09214 39.1314C8.82651 39.1314 8.82651 31.8 4.09214 31.8Z" fill="#698DFF"/>
<path d="M361.092 39.8C356.367 39.8 356.358 47.1314 361.092 47.1314C365.827 47.1314 365.827 39.8 361.092 39.8Z" fill="#698DFF"/>
<path d="M300.713 22.9174C300.625 22.6145 300.464 22.3377 300.245 22.111L299.869 21.8269C299.591 21.6622 299.274 21.5737 298.951 21.5703H298.437C298.191 21.5593 297.947 21.6164 297.731 21.7353C297.502 21.8042 297.295 21.9341 297.134 22.111C296.962 22.2725 296.833 22.474 296.758 22.6975C296.643 22.9141 296.589 23.1581 296.602 23.4031L296.666 23.898C296.752 24.2017 296.913 24.4789 297.134 24.7044L297.511 24.9885C297.789 25.1501 298.106 25.2354 298.428 25.236H298.942C299.187 25.2502 299.432 25.1963 299.648 25.0802C299.875 25.0052 300.079 24.8762 300.245 24.7044C300.569 24.3459 300.757 23.8856 300.777 23.4031C300.759 23.2473 300.731 23.0824 300.713 22.9174Z" fill="#698DFF"/>
<path d="M81.5613 14.3486C78.6069 14.3486 78.5977 18.9307 81.5613 18.9307C84.5248 18.9307 84.5157 14.3486 81.5613 14.3486Z" fill="#698DFF"/>
<path d="M345.895 58.8396C342.94 58.8396 342.94 63.4217 345.895 63.4217C348.849 63.4217 348.849 58.8396 345.895 58.8396Z" fill="#698DFF"/>
</svg>
